<svg xmlns="http://www.w3.org/2000/svg" xmlns:xlink="http://www.w3.org/1999/xlink" version="1.1" x="0px" y="0px" viewBox="-97 220.9 400 400" xml:space="preserve"><path d="M211.8,397.2c0-2.1-0.9-4.2-2.3-5.6c-0.1-0.1-0.2-0.2-0.4-0.3c-0.4-0.3-0.7-0.6-1.1-0.9L97.5,324.2l-18.4-34.4  c-1-1.9-2.7-3.3-4.8-3.8c-2.1-0.6-4.2-0.3-6.1,0.8l-69.2,40.4c-3.6,2.1-4.9,6.8-3,10.5l18.5,34.6l0,35.4c-0.1,0.8-0.1,1.5,0,2.3  l0,40l-17.4,13.6c-2.1,1.6-3.2,4.2-3,6.8c0.2,2.6,1.7,5,4,6.2l9.5,5.3C4.1,484,2,488.1,2,493c0,7.6,4.7,15.9,11.3,19.7  c2.4,1.4,4.9,2.1,7.3,2.1c2.1,0,4-0.5,5.8-1.5c0,0,0,0,0,0c0,0,0,0,0,0l4.2-2.4c3.8-2.2,6.1-6.4,6.1-11.5c0-0.4-0.1-0.8-0.1-1.2  L80,522.3l-0.9,0.5c0,0,0,0,0,0c-0.1,0-0.1,0.1-0.2,0.1c-3.7,2.3-5.9,6.4-5.9,11.4c0,7.6,4.8,15.9,11.3,19.7  c2.4,1.4,4.9,2.1,7.3,2.1c2.1,0,4-0.5,5.8-1.5c0,0,0,0,0,0c0,0,0,0,0,0c0,0,0,0,0,0l4.2-2.4c3.8-2.2,6.1-6.4,6.1-11.5  c0-0.9-0.1-1.9-0.2-2.8l11.7,6.5c1.2,0.7,2.5,1,3.8,1c1.4,0,2.7-0.4,3.9-1.1l68.4-39.8c2.4-1.4,3.9-4,3.9-6.8c0-2.8-1.6-5.4-4-6.8  l-34.7-19.4l47.2-27.4c2.4-1.4,3.9-4,3.9-6.8l-0.1-39.5C211.8,397.5,211.8,397.3,211.8,397.2z M183.8,439.8l-38.9,22.6l-2.3,1.3  v-2.6V442l13.6-8l3.6-2.1l6.4-3.8l1.7-1l8.4-4.9l17.2-10.1l1.2-0.7l1.2-0.7v0l0,2.2l0,13.5l0,6.2l-2.3,1.3L183.8,439.8z M69.1,304.4  l12,22.4l-23.3,13.5L25.4,359l-11.9-22.1L69.1,304.4z M62.7,454.2c1.3-1.4,2.1-3.3,2.1-5.3v-13.6v-2.1l18.9,6v7.2v12.4L62.7,454.2z   M83.7,397.5l-12.9-7.7l12.9-7.4V397.5z M49.1,363.5v13.2L37.9,370l-0.1-0.1L49.1,363.5L49.1,363.5z M64.8,404.6l18.8,11.3  c0,0.1,0.1,0.1,0.1,0.2v6.5l-18.9-6V404.6z M99.4,425.4l7.5,4.5l-7.5-2.4V425.4z M83.7,364.2l-18.9,10.9v-20.7v0l0.8-0.5l18.1-10.4  V364.2z M30.3,383.9l9.4,5.7l-9.4,5.4L30.3,383.9z M49.1,402.3v9.5l-10.6-3.3L49.1,402.3z M168.6,408.5v-4.2l4.7,1.5L168.6,408.5z   M152.9,417.3l-20-4.2c0.7-1.2,1.1-2.5,1.1-3.9v-15.7l18.9,6V417.3z M118.3,410l-18.9-4v-23.4l18.8,5.9v20.7  C118.3,409.4,118.3,409.7,118.3,410z M30.3,422.2l18.8,5.9v20.7c0,0.9,0.2,1.8,0.5,2.6l-19.3-4.1L30.3,422.2z M99.4,455v-11  l27.5,8.6v15.1l-7.6-1.6l-19.9-4.2V455z M178.4,390.9l-9.9-3.1V385L178.4,390.9z M152.9,375.6v7.3l-18.9-6v-12.7L152.9,375.6z   M118.3,372l-18.8-5.9v-22.5l18.8,11.3V372z M16.2,468.5l8.2-6.4L128.1,484l-41.5,24L16.2,468.5z M123.1,528.4l-20.5-11.5l30.1-17.4  c2,4.5,5.3,8.6,9.4,10.9c2.4,1.4,4.9,2.1,7.3,2.1c0.4,0,0.8,0,1.1-0.1L123.1,528.4z M175.8,497.8l-12.6,7.3c1.5-2.2,2.4-5,2.4-8.1  c0-1.8-0.3-3.6-0.8-5.4L175.8,497.8z"/></svg>