<svg id="Capa_1" enable-background="new 0 0 512 512" height="512" viewBox="0 0 512 512" width="512" xmlns="http://www.w3.org/2000/svg" fill="#FFFFFF"><g><path d="m30.635 0h130.243v170.304h-130.243z" /><path d="m95.757 278.705c35.908 0 65.121-29.214 65.121-65.122v-13.278h-130.243v13.278c0 35.908 29.214 65.122 65.122 65.122z"/><path d="m190.878 0h130.244v170.304h-130.244z"/><path d="m256 278.705c35.908 0 65.122-29.214 65.122-65.122v-13.278h-130.244v13.278c0 35.908 29.214 65.122 65.122 65.122z"/><path d="m351.122 213.583c0 35.908 29.213 65.122 65.121 65.122s65.122-29.214 65.122-65.122v-13.278h-130.243z"/><path d="m351.122 0h130.243v170.304h-130.243z"/><path d="m185.909 392.562h140.182v119.438h-140.182z"/><path d="m336.122 264.805c-16.926 26.383-46.517 43.9-80.122 43.9s-63.196-17.517-80.122-43.9c-16.925 26.383-46.516 43.9-80.121 43.9-20.214 0-38.971-6.343-54.397-17.135v220.43h114.55v-149.438h200.182v149.438h114.55v-220.431c-15.426 10.793-34.184 17.135-54.397 17.135-33.607.001-63.198-17.516-80.123-43.899z"/></g></svg>